<?xml version="1.0" encoding="UTF-8" standalone="no"?>
<svg width="221px" height="428px" viewBox="0 0 221 428" version="1.1" xmlns="http://www.w3.org/2000/svg" xmlns:xlink="http://www.w3.org/1999/xlink">
    <!-- Generator: Sketch 40 (33762) - http://www.bohemiancoding.com/sketch -->
    <title>Page 1</title>
    <desc>Created with Sketch.</desc>
    <defs>
        <polygon id="path-1" points="117.372932 51.5164214 117.372932 0.300834716 0.527496411 0.300834716 0.527496411 51.5164214 117.372932 51.5164214"></polygon>
        <polygon id="path-3" points="128.217925 427.14214 0 427.14214 0 0.0898026756 128.217925 0.0898026756"></polygon>
    </defs>
    <g id="Page-1" stroke="none" stroke-width="1" fill="none" fill-rule="evenodd">
        <g id="contact-overlay" transform="translate(-167.000000, -262.000000)">
            <g id="Group-5" transform="translate(167.000000, 239.000000)">
                <g id="Page-1" transform="translate(0.000000, 23.000000)">
                    <polygon id="Fill-1" fill="#8CE1CB" points="184.917779 34.0900853 194.656966 155.389918 205.448024 168.210988 218.840581 173.079868 211.994035 220.458413 201.87918 232.963647 201.87918 353.875721 116.27701 423.72241 78.109162 275.263798 78.109162 23.8175936 161.670203 15.1086472"></polygon>
                    <g id="Group-22" transform="translate(0.000000, 0.500702)">
                        <g id="Group-4" transform="translate(102.718310, 154.496656)">
                            <mask id="mask-2" fill="white">
                                <use xlink:href="#path-1"></use>
                            </mask>
                            <g id="Clip-3"></g>
                            <path d="M1.61684738,22.0091973 L91.9367782,0.391622074 C92.938559,0.153963211 93.9966899,0.388494983 94.8012451,1.02954849 L116.123523,18.0815719 C118.20848,19.7514381 117.579236,23.0786622 115.024695,23.866689 L25.4999278,51.5164214 C25.4999278,51.5164214 -5.61162721,45.5530602 1.61684738,22.0091973" id="Fill-2" fill="#EF6852" mask="url(#mask-2)"></path>
                        </g>
                        <g id="Group-7">
                            <mask id="mask-4" fill="white">
                                <use xlink:href="#path-3"></use>
                            </mask>
                            <g id="Clip-6"></g>
                            <path d="M3.18628906,15.1780134 L82.3363639,0.0898026756 L95.534826,46.5489833 C95.534826,46.5489833 101.821,160.181191 104.334844,176.507729 C106.848688,192.83114 128.217925,206.011826 128.217925,206.011826 L128.217925,263.143766 C128.217925,263.143766 116.27795,272.559435 116.27795,298.930187 L116.27795,423.222645 C116.27795,426.509217 112.461791,428.332311 109.900989,426.268431 L1.46134774,339.031993 C0.540961632,338.287746 -0.000626113,337.168247 -0.000626113,335.979953 L-0.000626113,19.0243344 C-0.000626113,17.1449532 1.33612514,15.5313746 3.18628906,15.1780134" id="Fill-5" fill="#AF9F56" mask="url(#mask-4)"></path>
                        </g>
                        <path d="M82.3373031,0.0894899666 L172.613406,7.92910535 C174.85176,8.12611204 176.767666,9.62398829 177.490826,11.7504097 L184.916526,33.5900084 C186.118663,37.1173662 183.642386,40.8198411 179.920145,41.0637542 L95.5388957,46.5486706 L82.3373031,0.0894899666 Z" id="Fill-8" fill="#EF6852"></path>
                        <path d="M110.330815,66.8200334 L117.142925,149.115669 C117.349542,151.592324 119.919736,153.330987 122.577586,152.786873 L174.081641,142.270468 C176.254253,141.829548 177.738141,139.993946 177.562829,137.970719 L170.994904,63.0143645 C170.800809,60.7878763 168.681416,59.1211371 166.236445,59.2681104 L114.488206,62.4483612 C112.008798,62.5984615 110.142981,64.5622742 110.330815,66.8200334" id="Fill-10" fill="#FFFDF1"></path>
                        <path d="M139.846095,259.727107 L139.846095,362.395736 C139.846095,365.619766 143.521379,367.467876 146.110356,365.547843 L190.423503,332.754047 C191.422154,332.012926 192.0107,330.843395 192.0107,329.60194 L192.0107,239.995167 C192.0107,237.155769 189.080491,235.254498 186.485253,236.414649 L142.175236,256.143462 C140.75709,256.775134 139.846095,258.179197 139.846095,259.727107" id="Fill-12" fill="#EF6852"></path>
                        <path d="M103.246034,75.4276622 C106.536257,75.1118261 175.671655,67.8945017 175.671655,67.8945017" id="Fill-14" fill="#8CE1CB"></path>
                        <path d="M103.421971,77.2545084 L103.071348,73.5989398 C106.314613,73.2893579 174.789462,66.1408294 175.481317,66.0689064 L175.860115,69.7182207 C175.171391,69.7901438 106.68089,76.9386722 103.421971,77.2545084" id="Fill-16" fill="#8CE1CB"></path>
                        <path d="M103.246034,86.4816137 C106.536257,86.1657776 175.671655,78.9484532 175.671655,78.9484532" id="Fill-18" fill="#8CE1CB"></path>
                        <path d="M103.421971,88.3100234 L103.071348,84.6544548 C106.314613,84.3448729 174.789462,77.1963445 175.481317,77.1244214 L175.860115,80.7737358 C175.171391,80.8456589 106.68089,87.9941873 103.421971,88.3100234" id="Fill-20" fill="#8CE1CB"></path>
                    </g>
                </g>
            </g>
        </g>
    </g>
</svg>