<?xml version="1.0" encoding="UTF-8" standalone="no"?>
<svg width="216px" height="531px" viewBox="0 0 216 531" version="1.1" xmlns="http://www.w3.org/2000/svg" xmlns:xlink="http://www.w3.org/1999/xlink">
    <!-- Generator: Sketch 40 (33762) - http://www.bohemiancoding.com/sketch -->
    <title>Group 6</title>
    <desc>Created with Sketch.</desc>
    <defs>
        <polygon id="path-1" points="132.597954 132.984747 132.597954 0.402 0.000203053435 0.402 0.000203053435 132.984747"></polygon>
        <polygon id="path-3" points="358.941216 214.489456 358.941216 0.000990258933 -0.000157611185 0.000990258933 -0.000157611185 214.489456 358.941216 214.489456"></polygon>
    </defs>
    <g id="Page-1" stroke="none" stroke-width="1" fill="none" fill-rule="evenodd">
        <g id="Landing-Concept-2" transform="translate(-42.000000, -46.000000)">
            <g id="Group-6" transform="translate(42.000000, 46.000000)">
                <g id="Page-1" transform="translate(42.000000, 0.000000)">
                    <g id="Group-3" transform="translate(0.000000, 0.033065)">
                        <mask id="mask-2" fill="white">
                            <use xlink:href="#path-1"></use>
                        </mask>
                        <g id="Clip-2"></g>
                        <path d="M132.598157,66.6933227 C132.598157,103.304762 102.914791,132.984747 66.2991802,132.984747 C29.6835695,132.984747 0.000203053435,103.304762 0.000203053435,66.6933227 C0.000203053435,30.0818833 29.6835695,0.401898485 66.2991802,0.401898485 C102.914791,0.401898485 132.598157,30.0818833 132.598157,66.6933227" id="Fill-1" fill="#FFFDF1" mask="url(#mask-2)"></path>
                    </g>
                    <path d="M94.1646092,35.3350604 C92.1452427,38.5601968 87.8933038,39.5388028 84.6678,37.5196665 C81.4422962,35.5005301 80.4635786,31.2490755 82.482945,28.0239392 C84.5023115,24.7977877 88.7542504,23.8201968 91.9797542,25.8393331 C95.2062733,27.8584695 96.1839756,32.109924 94.1646092,35.3350604" id="Fill-4" fill="#2A4951"></path>
                    <path d="M31.8429412,53.971618 C30.8337656,55.5846937 28.7077962,56.0729816 27.0945366,55.063921 C25.4812771,54.0538452 24.9929336,51.928118 26.0021092,50.3160574 C27.0123,48.7029816 29.1382695,48.2146937 30.7505137,49.2237543 C32.3637733,50.2328149 32.8521168,52.3585422 31.8429412,53.971618" id="Fill-6" fill="#2A4951"></path>
                    <path d="M55.7097405,109.812362 C54.2254198,112.183756 51.0983969,112.902483 48.7267328,111.418332 C46.3550687,109.93418 45.6362595,106.807513 47.1205802,104.436119 C48.6049008,102.064726 51.7319237,101.345998 54.1035878,102.83015 C56.4752519,104.315316 57.1940611,107.440968 55.7097405,109.812362" id="Fill-8" fill="#2A4951"></path>
                    <path d="M97.2507168,89.9770119 C96.2780908,91.5312089 94.2292817,92.0022392 92.6749076,91.029724 C91.1215489,90.0561937 90.6504649,88.0086331 91.6230908,86.4544361 C92.5957168,84.9002392 94.644526,84.4292089 96.1978847,85.401724 C97.7522588,86.3752543 98.2233427,88.4228149 97.2507168,89.9770119" id="Fill-10" fill="#2A4951"></path>
                    <path d="M75.2939397,103.504109 C75.1710924,103.542685 75.1680466,103.538624 75.1680466,103.521366 L75.1832756,103.5102 L75.3183061,103.484821 L75.2939397,103.504109 Z M59.4760771,50.7507452 C58.3278099,51.0349877 57.2008634,51.3263361 56.0901611,51.6247907 C55.5500389,47.9062907 55.1713443,44.1116543 55.1459626,40.337321 C55.1307336,37.6695028 55.2952069,34.9722452 55.865787,32.6079574 C56.1348328,31.4385028 56.5186038,30.3269119 56.9724282,29.5726543 C57.191726,29.1960331 57.4150847,28.9087452 57.5805733,28.7290634 L57.6932679,28.6285634 L57.7836267,28.5524271 L57.8546954,28.4945634 L57.8861687,28.478321 L57.9003824,28.4641089 L57.9074893,28.4559877 L57.9237336,28.4498968 L58.1613061,28.4082755 L58.1633366,28.4082755 L58.1399855,28.4021846 L58.168413,28.4072604 L58.2973519,28.3849271 L58.2729855,28.4021846 L58.2222221,28.4143665 C58.2679092,28.4194422 58.3095351,28.4082755 58.3694359,28.424518 C58.6252832,28.4732452 58.9897641,28.6011543 59.3918099,28.8163665 C60.2070695,29.2457755 61.1319779,30.0284574 61.994955,30.9085937 C63.7503519,32.6922149 65.3037107,34.9722452 66.6865046,37.3172452 C68.7434359,40.7900786 70.419642,44.5065483 71.852184,48.2494119 C67.5423748,48.9214422 63.3980542,49.797518 59.4760771,50.7507452 L59.4760771,50.7507452 Z M29.4465046,74.8839422 L29.4424435,74.9022149 C29.4272145,74.909321 29.4221382,74.9083058 29.4038634,74.7814119 L29.4109702,74.7499422 L29.4465046,74.8839422 Z M111.933917,55.9117755 C111.768428,55.3067452 111.875031,55.7056998 111.83239,55.5544422 L111.810054,55.4884574 L111.765382,55.358518 L111.675024,55.0966089 L111.630352,54.9666695 L111.513596,54.688518 C111.43136,54.4986846 111.343031,54.3108816 111.251657,54.126124 C111.159268,53.9413665 111.062818,53.7586392 110.962306,53.5799725 C110.868902,53.4276998 110.782604,53.3119725 110.690215,53.1779725 C110.506451,52.9241846 110.321673,52.6500937 110.123695,52.4277755 C109.327726,51.5070331 108.459673,50.8319574 107.604818,50.2837755 C105.884955,49.2026392 104.21281,48.6300937 102.582291,48.1641392 C100.950756,47.7093513 99.3557718,47.4332301 97.7861687,47.2261392 C96.2165656,47.017018 94.6662527,46.8748968 93.136245,46.8109422 C88.0893519,46.6129877 83.2109931,46.8606846 78.4981229,47.3743513 C76.9000924,42.9117452 74.9913901,38.414624 72.608558,33.9631846 C71.882642,32.6150634 71.0775351,31.2811543 70.2033901,29.9614574 C69.3322908,28.6407452 68.3860618,27.3271392 67.2641916,26.0581998 C66.1321687,24.7953513 64.8864359,23.5416392 63.1625122,22.4676089 C62.2964893,21.9376998 61.3086344,21.4514422 60.1339702,21.1387755 C59.8466496,21.0575634 59.5197336,21.0108665 59.2110924,20.9570634 C59.0506802,20.9316846 58.9085427,20.9052907 58.730871,20.887018 C58.525787,20.8748361 58.3196878,20.8677301 58.1125733,20.8667149 C57.906474,20.8646846 57.6993595,20.8677301 57.4932603,20.8758513 L57.191726,20.8931089 L57.0546649,20.9093513 L56.5054053,20.9763513 C55.8698481,21.0991846 56.2576802,21.028124 56.0840695,21.0646695 L55.9591916,21.0971543 L55.7104511,21.1671998 L55.2150008,21.3164271 C54.8769168,21.409821 54.5895962,21.5712301 54.2789244,21.7103058 C53.9682527,21.8524271 53.676871,22.0107907 53.4189931,22.1914877 C53.1560389,22.368124 52.8717641,22.5457755 52.6382527,22.7386543 C51.6757794,23.5101695 50.9518939,24.3659422 50.3549168,25.2125786 C50.0574435,25.6379271 49.8137794,26.0581998 49.5579321,26.4855786 C49.3437107,26.9028058 49.1071534,27.3291695 48.9203443,27.7453816 C48.5284511,28.5778058 48.1995046,29.4021089 47.9142145,30.2193058 C47.3426191,31.8526846 46.9537718,33.4586543 46.6288863,35.0422907 C46.300955,36.6259271 46.0410466,38.1973816 45.8613443,39.7495483 C45.2511687,44.947124 45.1851763,50.0127301 45.4653901,54.9108361 L45.3943214,54.9351998 C41.0885733,56.4812755 37.1950237,58.1542452 33.803016,59.9490331 C30.4110084,61.7407755 27.5276496,63.6614422 25.2534511,65.784124 C24.1183824,66.849018 23.1305275,67.9463968 22.3477565,69.1452907 C21.5619397,70.3370786 21.0004969,71.6253058 20.6969321,72.8130331 C20.4167183,74.0433968 20.3953977,75.110321 20.4654511,75.8249877 C20.5466725,76.5457452 20.6197718,76.9142452 20.6197718,76.9142452 L20.7141916,77.2614271 C20.7141916,77.2614271 20.7639397,77.4390786 20.8593748,77.7821998 L20.897955,77.9192452 C20.9405962,78.0288816 20.9842527,78.1446089 21.030955,78.2664271 C21.1345122,78.5222452 21.2563443,78.8014119 21.4015275,79.096821 C21.4736115,79.2430028 21.5538176,79.4023816 21.6350389,79.5475483 C21.7061076,79.6602301 21.7812374,79.7759574 21.8573824,79.8967604 C22.0137336,80.1363361 22.186329,80.3891089 22.3751687,80.6530483 C23.1427107,81.6286089 24.1924969,82.6001089 25.4108176,83.3990331 C26.6301534,84.2050634 27.9956878,84.8375028 29.4820389,85.4019271 C32.4598176,86.5114877 35.9208634,87.2190483 39.8093366,87.6443968 C41.7545885,87.8555483 43.808474,87.9915786 45.9588099,88.0535028 C46.6654359,88.0687301 47.3852603,88.0727907 48.1121916,88.0717755 C45.4329015,83.4680634 44.4166191,79.6155634 44.0389397,77.187321 C43.4328252,77.2116846 42.8358481,77.2309725 42.2561305,77.2390937 C41.6550924,77.2502604 41.0682679,77.2512755 40.5007336,77.2421392 C38.8631076,77.2157452 37.3544206,77.1243816 36.0142679,76.9609422 C34.6781763,76.7903968 33.5106191,76.5579271 32.5532221,76.2919574 C31.5998863,76.0310634 30.8445275,75.7244877 30.3703977,75.4564877 C29.8901763,75.1884877 29.6790008,74.9925634 29.558184,74.9103361 L29.5185885,74.8666846 L29.4891458,74.8534877 L29.5368634,74.9377452 L29.5835656,75.1174271 L29.5795046,75.1803665 L29.531787,75.0463665 C29.4830542,74.9072907 29.4465046,74.8037452 29.4170618,74.7205028 C29.4536115,74.554018 29.527726,74.2626695 29.7754511,73.8058513 C30.0465275,73.2992907 30.5551763,72.6252301 31.2536802,71.881124 C32.6557641,70.3817452 34.8954435,68.6143665 37.747329,66.8611998 C39.1727641,65.9810634 40.7504893,65.0948361 42.4622298,64.2197755 C43.6470466,63.6248968 44.9009015,63.0401695 46.2075504,62.4635634 C46.7964053,62.2036846 47.3923672,61.9458361 48.003558,61.6890028 C50.8341229,60.4961998 53.9296725,59.3724271 57.2140618,58.3633665 C58.4882221,57.9725331 59.7887794,57.5969271 61.1167489,57.2426392 C65.206245,56.136124 69.5282374,55.2255331 74.0197794,54.528124 C74.7903672,54.4083361 75.5660313,54.2926089 76.3467718,54.1850028 C77.7539321,54.0103968 79.1793672,53.858124 80.6139397,53.7342755 C84.6069855,53.3870937 88.6832832,53.2703513 92.7057718,53.603321 C95.4195809,53.8225937 98.1496344,54.2225634 100.521298,55.0225028 C101.690886,55.4143513 102.798543,55.9036543 103.540703,56.4498058 C103.91026,56.7178058 104.184382,56.9888513 104.339718,57.1979725 L104.413833,57.3258816 L104.402665,57.275124 L104.406726,57.2446695 L104.443276,57.3705483 L104.460535,57.3949119 L104.444291,57.375624 L104.445306,57.3776543 L104.51739,57.6253513 C104.495054,57.7177301 104.473734,57.8263513 104.409772,58.0405483 C104.321444,58.2679422 104.160016,58.5938058 103.917367,58.9562149 C103.437146,59.6942301 102.604627,60.5256392 101.670581,61.2768513 C99.7933519,62.8239422 97.4379321,64.1497301 95.0327641,65.3019271 C91.6255275,66.9281998 88.0467107,68.2458665 84.4648481,69.3848665 C84.2475809,68.256018 84.0181305,67.1139725 83.7714206,65.9577149 C83.5947641,65.1445786 83.4059244,64.3202755 83.2150542,63.4929271 C83.1216496,63.0939725 83.0272298,62.6940028 82.9307794,62.2920028 C82.8434664,61.9295937 82.7520924,61.5641392 82.6627489,61.1996998 C82.3723824,60.0312604 82.0698328,58.8546998 81.7459626,57.670018 C79.3011992,57.6679877 76.9478099,58.0710028 75.1599244,58.4912755 L75.161955,58.5004119 C75.488871,59.6982907 75.7893901,60.8890634 76.0756954,62.0737452 C76.1914359,62.5559422 76.3051458,63.0381392 76.4147947,63.5172907 C76.4990618,63.8918816 76.5843443,64.2654574 76.6645504,64.638018 C76.8594817,65.5364271 77.0462908,66.4317907 77.2148252,67.3190331 C77.4767641,68.6681695 77.7072298,70.0010634 77.9123137,71.3187301 C78.4392374,74.7133968 78.7813824,77.9882755 78.9438252,81.0550483 C78.9803748,81.7169271 79.0088023,82.366624 79.0321534,83.0092149 C79.0849473,84.436518 79.1072832,85.8191543 79.0890084,87.1449422 C79.049413,89.0676392 78.9417947,90.8735937 78.7732603,92.5394574 C78.4412679,95.8701695 77.8300771,98.6567604 77.0940084,100.573366 C77.0452756,100.699245 76.9965427,100.812942 76.9478099,100.931715 C76.9427336,100.945927 76.9386725,100.962169 76.9335962,100.975366 C76.6158176,101.877836 76.256413,102.535654 75.8513214,102.948821 C75.6269473,103.227988 75.4513061,103.379245 75.3426725,103.465533 C75.2553595,103.475685 75.1457107,103.487866 74.9984969,103.505124 L74.8573748,103.520351 L74.9132145,103.489897 L75.0949473,103.452336 L75.1913977,103.458427 L75.1670313,103.438124 L75.1101763,103.420866 C75.1101763,103.420866 75.1020542,103.416806 75.0990084,103.415791 C72.9974053,103.973109 69.9130237,99.1917452 65.5768176,88.2159271 C59.7461382,73.4576543 58.1389702,62.9061695 58.1389702,62.9061695 C53.9032756,64.1730786 49.3995504,66.4480331 47.0695122,67.7047907 C47.1060618,67.8956392 47.1415962,68.0875028 47.1781458,68.2783513 C47.3121611,68.926018 47.4451611,69.5706392 47.5781611,70.2111998 C47.8827412,71.5907907 48.1883366,72.8516089 48.5223595,74.1449119 C48.7497794,75.0504271 48.9924282,75.9396998 49.242184,76.8208513 C50.3610084,80.7819725 51.6808557,84.4984422 53.1083214,87.9296543 C53.1621305,88.0595937 53.2149244,88.1935937 53.2697489,88.3235331 C54.182474,90.4695634 55.139871,92.5018968 56.1206191,94.4134271 C57.1155809,96.3208968 58.1359244,98.1085786 59.175558,99.7653058 C61.2568557,103.07673 63.4061763,105.881594 65.7047412,108.074321 C66.8621458,109.164594 68.0276725,110.115791 69.2855885,110.860912 C70.5363977,111.608063 71.8694435,112.126806 73.0826878,112.390745 C73.4024969,112.445563 73.7050466,112.49023 73.9893214,112.52576 C74.1314588,112.543018 74.2685198,112.55926 74.4005046,112.574488 C74.5659931,112.583624 74.7456954,112.585654 74.9071229,112.586669 C75.2370847,112.587685 75.5416649,112.576518 75.8168023,112.55723 C75.9457412,112.546063 76.0696038,112.534897 76.1873748,112.524745 L76.3264664,112.499366 C76.6787641,112.436427 76.8594817,112.402927 76.8594817,112.402927 L77.2138099,112.336942 C77.2138099,112.336942 77.5762603,112.241518 78.2605504,111.998897 C78.9336725,111.750185 79.8839626,111.264942 80.8687718,110.475154 C81.8038328,109.682321 82.7175733,108.615397 83.4475504,107.388079 C84.1836191,106.159745 84.7389702,104.791321 85.2009168,103.306154 C86.1166878,100.333791 86.584726,96.9005483 86.7146802,93.0673361 C86.8466649,89.2320937 86.6507183,84.9989119 86.1603443,80.4520483 L86.1512069,80.3759119 C90.6792985,78.4887452 95.2073901,76.215821 99.6166954,73.3957301 C100.934512,72.5561998 102.235069,71.6354574 103.516337,70.6487301 C104.798619,69.6650483 106.073795,68.6133513 107.294146,67.385018 C107.904321,66.7718665 108.502314,66.1150634 109.078985,65.3993816 C109.372398,65.0501695 109.652611,64.6501998 109.93384,64.2756089 C110.206947,63.8593968 110.479039,63.4563816 110.730825,63.0026089 C111.232367,62.0960786 111.685176,61.0707755 111.959298,59.867821 C112.218192,58.6526846 112.261848,57.2659877 111.933917,55.9117755 L111.933917,55.9117755 Z" id="Fill-12" fill="#EF6852"></path>
                </g>
                <g id="Page-1" transform="translate(107.610697, 351.610697) rotate(90.000000) translate(-107.610697, -351.610697) translate(-71.889303, 244.110697)">
                    <mask id="mask-4" fill="white">
                        <use xlink:href="#path-3"></use>
                    </mask>
                    <g id="Clip-2"></g>
                    <path d="M197.987046,174.836335 C181.598375,190.768374 206.830027,101.179164 220.361894,90.2703825 C234.142178,79.1611546 225.678724,114.443192 225.678724,114.443192 C225.678724,114.443192 224.521166,118.998165 222.41134,125.707938 C220.64999,130.231808 219.019748,134.933661 217.563744,139.773752 C212.714423,152.614423 205.95194,167.093225 197.987046,174.836335 M107.813129,157.544369 C107.792428,156.706296 107.75965,155.864766 107.700996,155.012869 C104.885595,114.928756 81.8206974,102.682513 74.5820803,70.4434606 C67.3417381,38.2044085 79.365847,14.9837202 95.6717118,17.926482 C102.065019,19.0807772 105.779209,28.5415056 106.753903,39.989419 C84.2548462,51.0243435 85.8661113,74.3400711 98.2800981,81.2796666 C114.691195,90.4535492 134.526662,71.2383346 136.474327,53.9601933 C140.79576,53.6681635 145.365612,53.5886761 150.088999,53.6491556 C142.156882,78.9641641 116.364565,125.370981 107.813129,157.544369 M349.230325,153.364369 C348.32981,154.701831 347.327514,156.082493 346.206184,157.497714 C333.460973,173.618104 323.89344,170.004883 328.221774,152.396696 C332.551833,134.78851 339.226335,116.300778 332.056723,101.127324 C326.130925,88.5855953 310.152833,76.9182276 310.152833,76.9182276 C310.152833,76.9182276 315.928546,56.0614254 303.778503,46.3224911 C295.83431,39.9548593 276.292114,44.7569349 279.985603,70.1358789 C281.005151,77.1342259 285.219627,82.5272731 290.377746,87.6801301 C284.596858,108.53002 271.658433,149.697581 257.346811,159.199781 C237.17322,172.589952 253.354876,100.87331 268.479031,83.5416015 C273.64405,77.6232462 267.892489,68.5876026 260.383028,70.8650894 C260.251919,70.9048331 260.120809,70.9463048 259.987975,70.9895044 C255.468152,72.4565653 248.798825,78.9226924 241.812076,88.8465213 C241.65854,85.6825773 241.165155,82.1402041 240.221513,78.1554662 C240.221513,78.1554662 236.781617,62.9232615 226.292868,62.8973417 C208.670734,62.854142 175.686378,93.8300356 162.649621,141.624426 C161.102186,147.300863 160.11369,152.636887 159.606504,157.610033 C155.781906,162.914953 151.796871,167.148521 147.925695,169.120154 C132.39441,177.034334 168.309751,83.9338545 176.536863,58.1246418 C176.876713,57.0567459 177.173434,56.0026738 177.449454,54.9572417 C194.000286,56.0441455 210.473488,57.1984408 223.66033,55.8177792 C236.96448,54.4250218 245.393432,49.9322558 250.730963,44.7690308 C256.729217,38.9681787 251.402036,28.8732791 243.238753,30.5718903 C224.71783,34.4235731 202.900197,31.4963633 178.379295,30.4492032 C175.657051,17.91957 168.009579,9.58203309 160.344857,8.05794863 C157.111976,7.41513749 154.215494,10.1505408 154.695078,13.4181641 C155.226416,17.0469366 155.621469,22.6974539 154.907268,30.2781325 C149.381699,30.476851 143.749171,30.870832 138.004511,31.5585708 C136.998764,31.6778019 136.036145,31.8212248 135.063176,31.9577358 C134.188538,28.4827541 132.991303,25.0440601 131.41799,21.7038614 C118.412286,-5.91628163 66.0409951,-11.4458398 46.231405,30.5062268 C32.1388733,60.3520169 42.7242295,89.0832555 56.6425238,119.67208 C68.2715795,145.232463 69.7500101,163.365957 60.3825909,176.206628 C49.6281727,190.948085 28.2814978,182.080056 32.6477847,151.261409 C33.9916557,141.781673 35.9393198,135.187675 37.8421308,130.653437 C39.8363732,125.899745 35.6788262,120.843655 30.6380161,121.895999 C22.0382768,123.68965 11.3011098,128.851147 4.91470358,142.757985 C-8.10307634,171.103883 5.480544,206.254593 36.8898627,213.294412 C62.916797,219.128095 95.7562428,203.15804 105.187492,175.121452 C105.856839,199.746994 130.624434,203.1926 147.620348,190.20505 C151.983184,186.870036 156.354647,182.733235 160.560497,178.259477 C165.059619,198.089855 180.081992,206.152642 195.087114,197.635394 C202.882945,193.211748 209.943875,184.540709 216.112916,174.186612 C221.396968,190.868597 236.120895,198.533947 248.736721,194.915543 C277.396193,186.697237 296.432928,129.995074 304.342618,101.308763 C306.198851,103.392715 307.927424,105.594171 309.417931,107.985704 C318.557634,122.659769 289.611791,157.14866 294.968299,179.74209 C302.758955,212.599761 340.20448,200.750955 356.960602,162.03368 C357.538518,160.699674 358.062956,159.420963 358.53909,158.197549 C360.830053,152.299929 352.756477,148.114745 349.230325,153.364369" id="Fill-1" fill="#2A4951" mask="url(#mask-4)"></path>
                </g>
            </g>
        </g>
    </g>
</svg>