<?xml version="1.0" encoding="UTF-8" standalone="no"?>
<svg width="321px" height="326px" viewBox="0 0 321 326" version="1.1" xmlns="http://www.w3.org/2000/svg" xmlns:xlink="http://www.w3.org/1999/xlink">
    <!-- Generator: Sketch 40 (33762) - http://www.bohemiancoding.com/sketch -->
    <title>Group 8</title>
    <desc>Created with Sketch.</desc>
    <defs></defs>
    <g id="Page-1" stroke="none" stroke-width="1" fill="none" fill-rule="evenodd">
        <g id="Landing-Concept-2" transform="translate(-883.000000, -1127.000000)">
            <g id="Group-8" transform="translate(883.000000, 1127.000000)">
                <path d="M201.914254,196.068553 C201.914254,196.068553 200.879948,200.126839 198.997551,206.10598 C197.424838,210.135929 195.969523,214.327804 194.670062,218.639101 C190.342573,230.079217 184.306758,242.982745 177.198179,249.880819 C162.572157,264.077735 185.090078,184.249934 197.16778,174.528264 C209.468131,164.628475 201.914254,196.068553 201.914254,196.068553 M96.7145748,234.4735 C96.696358,233.726614 96.6680209,232.975679 96.6153947,232.218672 C94.103508,196.501707 73.5165618,185.587853 67.0556896,156.86207 C60.5927932,128.136287 71.3244802,107.444088 85.8796596,110.0673 C91.585549,111.095534 94.8989725,119.525839 95.7693281,129.727216 C75.6884027,139.558186 77.1275256,160.333372 88.2073548,166.516945 C102.853618,174.692215 120.55827,157.570499 122.296957,142.173301 C126.152835,141.914218 130.231362,141.845399 134.447526,141.898026 C127.369309,164.454404 104.347391,205.806416 96.7145748,234.4735 M312.186285,230.749188 C311.384748,231.941373 310.488079,233.169991 309.488182,234.433019 C298.112837,248.79591 289.573232,245.575595 293.437206,229.886929 C297.30118,214.196239 303.258055,197.724253 296.85993,184.20338 C291.568977,173.028419 277.309314,162.630706 277.309314,162.630706 C277.309314,162.630706 282.464653,144.045577 271.619617,135.368335 C264.529255,129.69483 247.087734,133.973742 250.384965,156.588819 C251.293778,162.825018 255.056548,167.63019 259.659312,172.22081 C254.499925,190.797842 242.952533,227.482318 230.178546,235.947033 C212.17433,247.881025 226.614136,183.976683 240.114769,168.532931 C244.723605,163.260195 239.590531,155.208394 232.886769,157.238549 L232.534578,157.34785 C228.502606,158.657431 222.549778,164.417971 216.311555,173.261189 C216.175941,170.441641 215.734691,167.284072 214.892673,163.733831 C214.892673,163.733831 211.824163,150.162356 202.46278,150.138067 C186.733633,150.099609 157.293349,177.700002 145.658921,220.288728 C144.276472,225.344887 143.395996,230.101482 142.942602,234.532199 C139.527974,239.258432 135.971661,243.031322 132.516551,244.788226 C118.653608,251.840131 150.709007,168.883097 158.05238,145.885469 C158.355992,144.93415 158.621147,143.994975 158.868085,143.061873 C173.639841,144.031409 188.342779,145.059643 200.110796,143.831025 C211.98609,142.588238 219.509606,138.584602 224.274297,133.983862 C229.627996,128.816379 224.871401,119.821355 217.586727,121.335369 C201.056043,124.768213 181.584366,122.15917 159.697959,121.224044 C157.26906,110.061227 150.443853,102.630819 143.602453,101.274684 C140.716111,100.701869 138.131357,103.13684 138.558438,106.049495 C139.032074,109.28398 139.386288,114.317873 138.746678,121.072238 C133.816012,121.250357 128.788191,121.600523 123.661189,122.21382 C122.76452,122.321097 121.904285,122.44659 121.035954,122.570059 C120.256682,119.473212 119.187966,116.408751 117.783253,113.433349 C106.175138,88.8225266 59.4329938,83.893885 41.7526305,121.27667 C29.172956,147.871094 38.6213745,173.471693 51.0431706,200.725968 C61.4226671,223.502972 62.7423691,239.659201 54.3808831,251.103365 C44.7826825,264.237638 25.7320152,256.335619 29.6283746,228.874887 C30.8266316,220.42839 32.5653187,214.552478 34.2635242,210.512408 C36.0447171,206.276003 32.3325492,201.772419 27.8350373,202.707545 C20.1576912,204.30657 10.5756833,208.905287 4.87586611,221.298746 C-6.74439322,246.557275 5.37986272,277.875908 33.4134094,284.150564 C56.6438077,289.348409 85.9545506,275.117083 94.372711,250.135853 C94.9677913,272.076911 117.074824,275.147444 132.2433,263.575763 C136.137635,260.604409 140.040067,256.918555 143.792716,252.931111 C147.808497,270.601354 161.218045,277.786848 174.609377,270.196538 C181.568174,266.255648 187.869143,258.529724 193.374649,249.301931 C198.092786,264.166795 211.233131,270.998074 222.493104,267.773711 C248.073462,260.448555 265.063613,209.925424 272.123614,184.365307 C273.779314,186.221391 275.323689,188.182727 276.653511,190.314086 C284.810565,203.389661 258.975172,234.12131 263.756056,254.252838 C270.70878,283.531195 304.130435,272.971555 319.086383,238.473088 C319.602524,237.284951 320.070087,236.145393 320.495144,235.054412 C322.539468,229.801917 315.333733,226.071533 312.186285,230.749188" id="Fill-19" fill="#FFFDF1"></path>
                <path d="M179.671203,15.2070402 C182.549449,17.0084739 186.344604,16.1360942 188.146038,13.2578484 C189.947472,10.3796027 189.075092,6.58444746 186.196846,4.78301377 C183.3186,2.98158009 179.523445,3.85395977 177.722012,6.7322055 C175.920578,9.61045124 176.792958,13.4056065 179.671203,15.2070402" id="Fill-21" fill="#AF9F56"></path>
                <path d="M128.297553,30.8639278 C129.736676,31.7646447 131.633242,31.3274428 132.533958,29.8883199 C133.434675,28.449197 132.999497,26.5526315 131.560375,25.6519146 C130.121252,24.7511978 128.224686,25.1883997 127.321945,26.6275225 C126.421228,28.0666454 126.85843,29.963211 128.297553,30.8639278" id="Fill-23" fill="#AF9F56"></path>
                <path d="M152.398307,73.4917187 C150.281116,72.1679685 147.49193,72.8096028 146.16818,74.9247693 C144.842406,77.0419599 145.48404,79.831146 147.601231,81.1569202 C149.716397,82.4806704 152.507607,81.8390361 153.831358,79.7218455 C155.157132,77.606679 154.515497,74.8174929 152.398307,73.4917187" id="Fill-25" fill="#AF9F56"></path>
                <path d="M185.877648,58.8776385 C185.009317,60.2641352 185.430326,62.091882 186.816823,62.9602135 C188.203319,63.828545 190.031066,63.4075358 190.899398,62.0210391 C191.767729,60.6345424 191.34672,58.8067956 189.960223,57.9384641 C188.573727,57.0701326 186.74598,57.4911418 185.877648,58.8776385" id="Fill-27" fill="#AF9F56"></path>
                <path d="M130.364344,48.4329665 L130.396729,48.5523874 L130.392681,48.56858 L130.358272,48.4592795 L130.364344,48.4329665 Z M153.971222,10.8234841 C154.210063,9.78108142 154.554157,8.78928085 154.958974,8.11526128 C155.153286,7.77926353 155.35367,7.52220502 155.501428,7.36230248 L155.602632,7.27324284 L155.681572,7.20442402 L155.744318,7.15382195 L155.772655,7.13762929 L155.786824,7.12548479 L155.792896,7.11941254 L155.807065,7.11334029 L156.019593,7.0769068 L156.021618,7.0769068 L155.999353,7.07083456 L156.025666,7.07488272 L156.141038,7.05464189 L156.118773,7.07083456 L156.07222,7.08095497 L156.205809,7.09107538 C156.432506,7.13358112 156.758384,7.24895384 157.116646,7.44124171 C157.845316,7.82379336 158.669118,8.52210192 159.440293,9.30744604 C161.006933,10.8983751 162.391406,12.9346024 163.626097,15.027504 C165.46194,18.1263748 166.957737,21.4418224 168.234933,24.7835831 C164.389176,25.3827116 160.691177,26.1640076 157.191537,27.0161464 C156.167351,27.2691568 155.161382,27.5282394 154.171606,27.7954183 C153.68785,24.4759225 153.351852,21.089632 153.327563,17.7215582 C153.315419,15.3412369 153.461153,12.9346024 153.971222,10.8234841 L153.971222,10.8234841 Z M171.307491,74.0942881 L171.194142,74.1084567 L171.208311,74.0983363 L171.329756,74.0760714 L171.307491,74.0942881 Z M122.518999,50.3639415 L122.604011,50.6736261 C122.604011,50.6736261 122.64854,50.8315046 122.733552,51.1391652 L122.767961,51.2606101 L122.887382,51.5702948 C122.978466,51.7990162 123.087766,52.0479783 123.217308,52.3111091 L123.425788,52.7139016 L123.624148,53.0256103 C123.76381,53.2401631 123.91764,53.4648363 124.085639,53.701654 C124.771803,54.5720096 125.708954,55.438317 126.795886,56.1507942 C127.882818,56.8713676 129.101316,57.4340627 130.427091,57.9380593 C133.084711,58.9278358 136.173462,59.5593496 139.64274,59.9398772 C141.379403,60.1281169 143.211197,60.2495618 145.130028,60.3042121 C145.761542,60.3183806 146.403176,60.3224288 147.052907,60.3204047 C144.660441,56.2135407 143.753652,52.7746241 143.417654,50.6068314 C142.877224,50.6290963 142.342866,50.647313 141.826725,50.6533853 C141.290343,50.6635057 140.766105,50.6655298 140.260085,50.6574335 C138.798697,50.6331445 137.452682,50.5501571 136.256449,50.4064472 C135.064264,50.2526169 134.021862,50.0461605 133.167699,49.8093428 C132.317584,49.5745492 131.643564,49.301298 131.220531,49.0624562 C130.791425,48.8236144 130.603186,48.6495433 130.495909,48.5746523 L130.4615,48.5361947 L130.435187,48.5240502 L130.477693,48.5989413 L130.518174,48.7608679 L130.514126,48.8175422 L130.473644,48.6981213 L130.370416,48.4066534 C130.402802,48.2568713 130.467572,47.9977887 130.690221,47.5889239 C130.931087,47.1375535 131.386506,46.5364009 132.009923,45.8725017 C133.260806,44.534583 135.258576,42.9578225 137.802848,41.3932065 C139.073972,40.6058383 140.482734,39.816446 142.010916,39.0351501 C143.067488,38.5048404 144.186805,37.982627 145.352677,37.46851 C145.876915,37.2357404 146.409248,37.004995 146.955751,36.7762737 C149.479782,35.7116061 152.242655,34.7096851 155.173527,33.8089683 C156.311061,33.458802 157.470861,33.1248283 158.656973,32.8090714 C162.304371,31.821319 166.162272,31.0096618 170.169956,30.3862443 C170.858144,30.2789679 171.550381,30.1757397 172.246665,30.0806078 C173.501597,29.9247534 174.774745,29.7891398 176.053965,29.6778153 C179.616351,29.3681306 183.253627,29.2628783 186.84435,29.5604185 C189.265153,29.7567545 191.702149,30.1129931 193.817316,30.8274943 C194.861742,31.1776606 195.849495,31.6128384 196.51137,32.1006424 C196.841295,32.3394842 197.086209,32.5823741 197.225871,32.7685897 L197.290642,32.8839624 L197.280521,32.8374085 L197.284569,32.8110955 L197.316955,32.92242 L197.333147,32.9446849 L197.318979,32.9264682 L197.318979,32.9284923 L197.383749,33.1511414 C197.363509,33.2321047 197.345292,33.3292607 197.288618,33.5215485 C197.209678,33.7239568 197.063944,34.0154247 196.847367,34.3372539 C196.420286,34.9950808 195.677448,35.7379192 194.843526,36.4099147 C193.167585,37.7883151 191.066587,38.9724035 188.919035,40.0006375 C185.878863,41.4519049 182.686884,42.627897 179.490858,43.6439866 C179.296546,42.6359933 179.092113,41.6178797 178.871488,40.5855975 C178.71361,39.8609758 178.545611,39.1242097 178.375588,38.3874436 C178.2926,38.031205 178.207589,37.6729423 178.120553,37.3146797 C178.043638,36.9908264 177.962675,36.6649491 177.881712,36.3390718 C177.622629,35.2966691 177.353426,34.2481942 177.063982,33.1895989 C174.882021,33.1875749 172.783047,33.5478616 171.18807,33.9223169 L171.190094,33.9304132 C171.479538,34.999129 171.748741,36.0617724 172.003775,37.1203677 C172.107003,37.5514974 172.210232,37.9806029 172.307388,38.4076844 C172.382279,38.741658 172.45717,39.0756317 172.530037,39.4075813 C172.704108,40.2111422 172.870083,41.0086308 173.019865,41.8000472 C173.254658,43.0043764 173.461115,44.1945371 173.643282,45.3705292 C174.11287,48.4005811 174.418506,51.3233567 174.56424,54.0599166 C174.596625,54.6509488 174.620914,55.2298365 174.643179,55.8026519 C174.689733,57.0778241 174.709974,58.3104905 174.693781,59.4945789 C174.657348,61.2089771 174.562216,62.8221711 174.41041,64.3078478 C174.114894,67.2812255 173.570415,69.7667991 172.912588,71.4771491 L172.783047,71.7969542 L172.768879,71.8374358 C172.487531,72.6409967 172.165702,73.2279807 171.803391,73.5983879 C171.605031,73.84735 171.447152,73.9829636 171.349997,74.0598787 L171.04436,74.0942881 L170.916843,74.1084567 L170.967445,74.0801196 L171.129371,74.0477342 L171.214383,74.0517824 L171.194142,74.0335657 L171.14354,74.0193971 L171.13342,74.0133248 C169.257095,74.5112492 166.504342,70.2444827 162.63632,60.449946 C157.434427,47.2792393 155.999353,37.8632061 155.999353,37.8632061 C152.218366,38.9926443 148.200562,41.0227994 146.121829,42.1441412 L146.218985,42.6562342 C146.338405,43.2351219 146.457826,43.8099614 146.575223,44.3827768 C146.848474,45.6134191 147.119701,46.7388092 147.417242,47.8925364 C147.621674,48.7001454 147.838251,49.4935859 148.0609,50.2809541 C149.058773,53.8150026 150.236789,57.1324743 151.509937,60.1949116 L151.653647,60.5450779 C152.469352,62.4618843 153.323515,64.2734384 154.197919,65.9817643 C155.086491,67.6840179 155.995304,69.2789952 156.924358,70.7565756 C158.782466,73.7117365 160.699273,76.2155269 162.749669,78.172815 C163.783975,79.1443747 164.822329,79.9944895 165.945695,80.6583886 C167.060965,81.3243119 168.251126,81.7878268 169.33401,82.0246445 C169.619406,82.0732225 169.888609,82.1137042 170.141619,82.1440654 L170.510002,82.1885952 L170.961373,82.1987157 C171.256889,82.2007397 171.528116,82.1885952 171.77303,82.1724026 L172.104979,82.1440654 L172.228448,82.1218005 C172.542181,82.0651262 172.704108,82.0347649 172.704108,82.0347649 L173.019865,81.9760665 C173.019865,81.9760665 173.343718,81.8910551 173.952967,81.6744782 C174.55412,81.4518291 175.40221,81.0186754 176.280662,80.3142946 C177.116608,79.6078897 177.93029,78.6545467 178.582044,77.5595179 C179.239871,76.462465 179.733747,75.2419431 180.14666,73.9161689 C180.96439,71.2646204 181.381351,68.200159 181.498748,64.7794591 C181.616144,61.3567351 181.440049,57.5797966 181.002847,53.5215106 L180.994751,53.4526918 C185.03482,51.7686549 189.076914,49.740524 193.011731,47.224589 C194.185699,46.4736543 195.347522,45.6539008 196.491129,44.7734248 C197.634736,43.8949728 198.77227,42.9557984 199.861227,41.8607696 C200.405705,41.3122432 200.938039,40.7272833 201.45418,40.0876731 C201.715287,39.7759644 201.966273,39.4197258 202.217259,39.083728 C202.460149,38.7133209 202.703039,38.3530342 202.927712,37.9482176 C203.375034,37.1406086 203.779851,36.2257231 204.022741,35.1509352 C204.255511,34.0680509 204.293968,32.8293122 204.0025,31.6209348 C203.852718,31.0805047 203.949874,31.4367432 203.911416,31.3011297 L203.891176,31.2444554 L203.850694,31.1270586 L203.769731,30.8942891 L203.731273,30.7768922 L203.626021,30.5279301 L203.393251,30.0279816 L203.134169,29.5401777 L202.891279,29.181915 C202.727328,28.9552177 202.563377,28.7103037 202.385258,28.5119436 C201.676829,27.690166 200.901605,27.0869893 200.138526,26.5991854 C198.604271,25.6336979 197.112522,25.123629 195.657207,24.7066679 C194.201891,24.3018514 192.776937,24.0549133 191.376272,23.8686977 C189.97763,23.6824821 188.593158,23.5549648 187.226902,23.4982905 C182.725342,23.3221953 178.37154,23.5428203 174.165496,24.0022871 C172.740541,20.0188922 171.036264,16.0071601 168.910977,12.0338856 C168.26327,10.8295563 167.544721,9.64141971 166.765449,8.46340352 C165.986177,7.28336325 165.142135,6.11141931 164.142238,4.97995703 C163.13222,3.85254291 162.020999,2.73322513 160.482696,1.77380988 C159.709496,1.30219859 158.82902,0.869044872 157.778521,0.587697364 C157.523487,0.516854466 157.232019,0.474348727 156.956744,0.42577074 L156.527638,0.365048256 C156.345471,0.35290376 156.161279,0.346831511 155.975064,0.344807429 C155.790872,0.344807429 155.606681,0.346831511 155.422489,0.354927843 L155.153286,0.369096422 L155.031841,0.383265002 L154.542013,0.443987485 C153.97527,0.553287956 154.321388,0.49054139 154.165534,0.522926714 L154.054209,0.551263874 L153.83156,0.61401044 L153.39031,0.747599905 C153.088722,0.830587299 152.831663,0.974297178 152.554364,1.09979031 C152.277064,1.22528344 152.017982,1.36696924 151.787236,1.52889586 C151.552443,1.68677432 151.299432,1.84465278 151.090952,2.01669982 C150.232741,2.70488797 149.585034,3.46796718 149.0527,4.22497415 C148.787546,4.60347763 148.570969,4.97995703 148.342247,5.36048459 C148.151984,5.73291583 147.939455,6.11344339 147.77348,6.48587463 C147.423314,7.22668893 147.129822,7.96345507 146.874787,8.69212487 C146.364718,10.1494645 146.0186,11.5845392 145.729156,12.997349 C145.435664,14.4101588 145.204919,15.8128481 145.042992,17.1973208 C144.498514,21.8365185 144.439816,26.3562954 144.690802,30.7283143 L144.626031,30.7505792 C140.784322,32.1289796 137.310996,33.6227527 134.282968,35.2238021 C131.256965,36.8228276 128.684355,38.5372257 126.6542,40.4317672 C125.642159,41.381062 124.759659,42.3607181 124.06135,43.4314579 C123.361018,44.4941014 122.859045,45.6437804 122.587818,46.7043998 C122.338856,47.8014526 122.318615,48.7547956 122.383386,49.3923817 C122.454228,50.03604 122.518999,50.3639415 122.518999,50.3639415 L122.518999,50.3639415 Z" id="Fill-29" fill="#FFFDF1"></path>
                <path d="M43.2712999,320.082285 C40.6460645,320.082285 38.9944129,318.074395 38.9944129,313.827869 C38.9944129,309.812089 40.5489085,307.707042 43.2712999,307.707042 C44.9229514,307.707042 46.2831351,308.451905 47.2567189,310.297868 L53.0213067,308.741349 C51.8250738,304.85511 48.5845172,302.100333 43.5627678,302.100333 C37.407532,302.100333 33.0011038,306.215293 33.0011038,313.827869 C33.0011038,321.638804 37.4378933,325.68697 43.4979971,325.68697 C48.5501078,325.68697 51.8250738,322.673111 53.1832333,318.622921 L47.4186455,317.070449 C46.8013003,318.689716 45.6030432,320.082285 43.2712999,320.082285" id="Fill-31" fill="#FFFDF1"></path>
                <polygon id="Fill-33" fill="#FFFDF1" points="75.105062 316.356353 81.9727749 316.356353 81.9727749 311.237448 75.105062 311.237448 75.105062 308.094047 84.5959863 308.094047 84.5959863 302.556157 69.1744994 302.556157 69.1744994 325.23398 84.759937 325.23398 84.759937 319.692041 75.105062 319.692041"></polygon>
                <path d="M110.534405,313.116606 L107.846423,313.116606 L107.846423,307.997701 L110.534405,307.997701 C112.056515,307.997701 112.738631,309.001646 112.738631,310.556141 C112.738631,312.177432 111.993769,313.116606 110.534405,313.116606 M118.73194,310.329444 C118.73194,305.663933 115.750466,302.554942 110.406888,302.554942 L101.91586,302.554942 L101.91586,325.232766 L107.846423,325.232766 L107.846423,317.879273 L108.556876,317.879273 L109.271377,317.879273 L112.738631,325.232766 L119.60432,325.232766 L115.16753,316.646607 C117.531659,315.515144 118.73194,313.181377 118.73194,310.329444" id="Fill-35" fill="#FFFDF1"></path>
                <polygon id="Fill-37" fill="#FFFDF1" points="133.394396 308.093845 139.25614 308.093845 139.25614 325.233778 145.156341 325.233778 145.156341 308.093845 151.018085 308.093845 151.018085 302.555954 133.394396 302.555954"></polygon>
                <polygon id="Fill-39" fill="#FFFDF1" points="167.819186 325.232968 173.749749 325.232968 173.749749 302.555145 167.819186 302.555145"></polygon>
                <polygon id="Fill-41" fill="#FFFDF1" points="190.683428 325.233373 196.613991 325.233373 196.613991 317.32933 203.676016 317.32933 203.676016 311.787391 196.613991 311.787391 196.613991 308.09344 205.815471 308.09344 205.815471 302.555549 190.683428 302.555549"></polygon>
                <polygon id="Fill-42" fill="#FFFDF1" points="222.03222 325.232968 227.962783 325.232968 227.962783 302.555145 222.03222 302.555145"></polygon>
                <polygon id="Fill-43" fill="#FFFDF1" points="250.826822 316.356353 257.694535 316.356353 257.694535 311.237448 250.826822 311.237448 250.826822 308.094047 260.317746 308.094047 260.317746 302.556157 244.896259 302.556157 244.896259 325.23398 260.481697 325.23398 260.481697 319.692041 250.826822 319.692041"></polygon>
                <path d="M285.218417,319.692851 L282.43328,319.692851 L282.43328,308.094857 L285.315573,308.094857 C287.874014,308.094857 290.369708,309.584582 290.369708,314.023395 C290.369708,318.300282 287.908424,319.692851 285.218417,319.692851 M285.704197,302.554942 L276.502717,302.554942 L276.502717,325.232766 L285.738607,325.232766 C292.152925,325.232766 296.365041,320.858723 296.365041,313.99101 C296.365041,307.058526 292.055769,302.554942 285.704197,302.554942" id="Fill-44" fill="#FFFDF1"></path>
            </g>
        </g>
    </g>
</svg>