<?xml version="1.0" encoding="UTF-8" standalone="no"?>
<svg width="164px" height="67px" viewBox="0 0 164 67" version="1.1" xmlns="http://www.w3.org/2000/svg" xmlns:xlink="http://www.w3.org/1999/xlink">
    <!-- Generator: Sketch 40.1 (33804) - http://www.bohemiancoding.com/sketch -->
    <title>Group 6</title>
    <desc>Created with Sketch.</desc>
    <defs>
        <polygon id="path-1" points="40.8206735 41.0380066 40.8206735 0.124053916 6.25106022e-05 0.124053916 6.25106022e-05 41.0380066"></polygon>
        <polygon id="path-3" points="110.501118 66.1896939 110.501118 0.000305585817 -4.85210706e-05 0.000305585817 -4.85210706e-05 66.1896939 110.501118 66.1896939"></polygon>
    </defs>
    <g id="Page-1" stroke="none" stroke-width="1" fill="none" fill-rule="evenodd">
        <g id="Landing-Concept-2-Copy" transform="translate(-638.000000, -14.000000)">
            <g id="Group-6" transform="translate(720.500000, 48.000000) rotate(-90.000000) translate(-720.500000, -48.000000) translate(686.500000, -34.500000)">
                <g id="Page-1" transform="translate(13.929825, 0.000000)">
                    <g id="Group-3" transform="translate(0.000000, 0.010204)">
                        <mask id="mask-2" fill="white">
                            <use xlink:href="#path-1"></use>
                        </mask>
                        <g id="Clip-2"></g>
                        <path d="M40.820736,20.5810146 C40.820736,31.8790057 31.6826236,41.0380066 20.4103992,41.0380066 C9.13817489,41.0380066 6.25106022e-05,31.8790057 6.25106022e-05,20.5810146 C6.25106022e-05,9.28302347 9.13817489,0.124022589 20.4103992,0.124022589 C31.6826236,0.124022589 40.820736,9.28302347 40.820736,20.5810146" id="Fill-1" fill="#FFFDF1" mask="url(#mask-2)"></path>
                    </g>
                    <path d="M28.9888542,10.904111 C28.3671863,11.8993617 27.0582142,12.2013516 26.0652333,11.5782626 C25.0722524,10.9551736 24.7709513,9.64320945 25.3926193,8.64795871 C26.0142872,7.65239471 27.3232592,7.35071814 28.3162401,7.97380713 C29.3095336,8.59689612 29.6105221,9.90886026 28.9888542,10.904111" id="Fill-4" fill="#2A4951"></path>
                    <path d="M9.80294389,16.6552004 C9.4922662,17.1529824 8.8377802,17.3036641 8.34113346,16.9922762 C7.84448673,16.6805751 7.69414873,16.024593 8.00482642,15.5271243 C8.31581667,15.0293423 8.97030267,14.8786606 9.46663685,15.1900485 C9.96328359,15.5014364 10.1136216,16.1574184 9.80294389,16.6552004" id="Fill-6" fill="#2A4951"></path>
                    <path d="M17.1504088,33.8871979 C16.6934563,34.6189907 15.730793,34.840784 15.0006692,34.382787 C14.2705454,33.92479 14.0492578,32.9599262 14.5062103,32.2281334 C14.9631628,31.4963406 15.9258261,31.2745472 16.65595,31.7325442 C17.3860738,32.1908545 17.6073613,33.1554051 17.1504088,33.8871979" id="Fill-8" fill="#2A4951"></path>
                    <path d="M29.9389216,27.7661709 C29.6394958,28.2457834 29.0087638,28.3911395 28.5302452,28.0910292 C28.0520391,27.7906057 27.9070145,27.1587453 28.2064402,26.6791328 C28.505866,26.1995203 29.136598,26.0541642 29.6148041,26.3542744 C30.0933228,26.6546979 30.2383474,27.2865584 29.9389216,27.7661709" id="Fill-10" fill="#2A4951"></path>
                    <path d="M23.1794626,31.9405225 C23.1416437,31.9524267 23.1407061,31.9511736 23.1407061,31.9458481 L23.1453944,31.9424021 L23.1869639,31.9345704 L23.1794626,31.9405225 Z M18.3098867,15.6612654 C17.9563893,15.7489803 17.6094554,15.8388881 17.2675224,15.9309887 C17.1012442,14.78349 16.984662,13.6124962 16.9768481,12.4477678 C16.9721598,11.6245009 17.0227934,10.7921492 17.1984482,10.0625493 C17.2812748,9.70166516 17.3994198,9.35863728 17.539131,9.12587956 C17.6066425,9.00965733 17.6754041,8.92100263 17.7263503,8.86555429 L17.7610436,8.83454081 L17.7888609,8.81104575 L17.8107396,8.79318951 L17.8204287,8.78817723 L17.8248045,8.78379148 L17.8269923,8.78128535 L17.8319932,8.77940574 L17.9051306,8.76656177 L17.9057557,8.76656177 L17.898567,8.76468217 L17.9073184,8.76624851 L17.9470127,8.75935662 L17.9395114,8.76468217 L17.9238838,8.76844138 C17.9379486,8.77000772 17.9507633,8.76656177 17.9692039,8.77157405 C18.0479673,8.78661089 18.1601738,8.82608259 18.2839448,8.8924953 C18.5349249,9.02500743 18.8196607,9.26653665 19.0853307,9.53813954 C19.6257349,10.0885505 20.103941,10.7921492 20.5296382,11.515797 C21.1628706,12.587485 21.6788956,13.7343572 22.1199079,14.8893744 C20.7931204,15.0967574 19.517279,15.3671073 18.3098867,15.6612654 L18.3098867,15.6612654 Z M9.06519377,23.1085729 L9.06394355,23.1142117 C9.05925526,23.1164046 9.05769249,23.1160913 9.05206654,23.0769328 L9.05425441,23.0672216 L9.06519377,23.1085729 Z M34.4591883,17.2539172 C34.4082421,17.0672098 34.4410602,17.1903239 34.427933,17.1436471 L34.4210568,17.1232847 L34.4073045,17.0831864 L34.3794872,17.0023634 L34.3657349,16.9622652 L34.3297913,16.8764299 C34.3044745,16.8178489 34.2772824,16.7598944 34.2491526,16.7028797 C34.2207103,16.6458651 34.1910178,16.5894769 34.160075,16.5343418 C34.1313201,16.4873517 34.1047531,16.4516392 34.0763108,16.4102879 C34.0197387,16.3319711 33.9628541,16.2473888 33.9019062,16.1787833 C33.6568647,15.8946497 33.3896318,15.6863268 33.1264622,15.5171624 C32.5969974,15.1835325 32.0822226,15.0068497 31.5802625,14.8630599 C31.0779898,14.7227161 30.586969,14.6375073 30.103762,14.5736008 C29.6205551,14.5090677 29.1432866,14.4652102 28.6722693,14.4454744 C27.1185682,14.3843872 25.616751,14.4608245 24.1658799,14.6193378 C23.6739215,13.242214 23.0863218,11.8544392 22.3527599,10.4807613 C22.1292845,10.0647421 21.88143,9.6531087 21.6123218,9.245861 C21.3441514,8.83830002 21.052852,8.43293192 20.7074809,8.04134759 C20.3589843,7.65164287 19.9754817,7.26475755 19.4447667,6.93332057 C19.178159,6.76979495 18.8740449,6.61973984 18.5124211,6.52325346 C18.4239686,6.49819206 18.3233265,6.48378176 18.2283104,6.46717858 C18.178927,6.45934689 18.1351696,6.45120194 18.0804728,6.44556313 C18.0173371,6.44180392 17.9538888,6.43961104 17.890128,6.43929778 C17.8266798,6.43867124 17.762919,6.43961104 17.6994707,6.44211718 L17.6066425,6.44744273 L17.5644478,6.45245501 L17.3953566,6.47313066 C17.1996984,6.51103603 17.3190937,6.4891073 17.2656471,6.50038493 L17.2272031,6.51040949 L17.1506276,6.53202495 L16.9981017,6.57807526 C16.8940216,6.60689587 16.8055691,6.6567054 16.7099279,6.69962304 C16.6142866,6.74348048 16.5245839,6.79235021 16.4451955,6.84811182 C16.3642442,6.90262036 16.2767294,6.95744216 16.2048422,7.01696298 C15.9085419,7.25504626 15.6856916,7.51913073 15.5019105,7.78039579 C15.4103324,7.91165486 15.3353197,8.04134759 15.2565564,8.1732332 C15.1906077,8.30198612 15.1177828,8.43355846 15.0602731,8.56199812 C14.9396276,8.81887744 14.8383604,9.07325062 14.750533,9.32543093 C14.5745657,9.82947828 14.4548579,10.3250674 14.3548409,10.8137647 C14.2538863,11.3024619 14.1738727,11.7873999 14.1185508,12.2663859 C13.9307065,13.8703153 13.9103905,15.43352 13.9966552,16.9450355 L13.9747765,16.9525539 C12.6492391,17.4296603 11.4505983,17.945925 10.4063587,18.4997819 C9.36211913,19.052699 8.47446858,19.645401 7.77434983,20.3004433 C7.42491556,20.6290609 7.12080148,20.967703 6.87982311,21.3376719 C6.63790708,21.7054479 6.46506527,22.1029843 6.37161192,22.4695072 C6.28534729,22.8491874 6.27878367,23.1784315 6.30034983,23.3989718 C6.32535407,23.6213917 6.34785789,23.7351078 6.34785789,23.7351078 L6.37692532,23.8422453 C6.37692532,23.8422453 6.39224042,23.8970671 6.4216204,24.0029515 L6.43349741,24.0452426 C6.44662464,24.0790755 6.46006442,24.114788 6.47444186,24.1523801 C6.50632226,24.2313235 6.54382863,24.317472 6.58852371,24.4086328 C6.61071497,24.4537434 6.63540666,24.5029264 6.6604109,24.5477236 C6.68228961,24.5824963 6.70541853,24.6182088 6.72886001,24.6554876 C6.77699317,24.7294187 6.83012718,24.8074223 6.88826204,24.8888719 C7.12455212,25.1899219 7.44773193,25.4897189 7.82279555,25.7362604 C8.19817171,25.9849947 8.61855551,26.1801604 9.07613312,26.3543371 C9.9928511,26.6967384 11.0583443,26.9150858 12.2554223,27.0463449 C12.8542739,27.1115045 13.4865687,27.1534824 14.1485559,27.1725917 C14.3660928,27.1772907 14.5876929,27.1785438 14.8114809,27.1782305 C13.9866535,25.7575625 13.6737879,24.5687125 13.5575182,23.8193767 C13.370924,23.8268952 13.1871429,23.8328472 13.0086751,23.8353534 C12.8236437,23.8387993 12.6429881,23.8391126 12.4682709,23.8362932 C11.9641229,23.8281482 11.4996692,23.7999542 11.0870992,23.7495181 C10.6757794,23.6968892 10.3163435,23.6251509 10.021606,23.5430748 C9.7281187,23.4625651 9.49557926,23.3679583 9.34961701,23.2852557 C9.20177943,23.2025531 9.13676841,23.1420925 9.0995746,23.1167178 L9.08738503,23.1032473 L9.07832099,23.0991748 L9.09301098,23.125176 L9.10738842,23.1806244 L9.10613821,23.200047 L9.09144822,23.1586957 C9.07644567,23.115778 9.06519377,23.0838247 9.05612973,23.0581368 C9.06738164,23.0067609 9.09019801,22.9168532 9.16646094,22.7758828 C9.2499126,22.6195624 9.40650165,22.4115528 9.62153813,22.1819277 C10.0531738,21.7192317 10.7426658,21.173833 11.6206272,20.6328201 C12.0594516,20.3612172 12.545159,20.0877347 13.0721234,19.8176981 C13.4368727,19.6341234 13.8228757,19.4536813 14.2251314,19.2757454 C14.4064122,19.195549 14.5898808,19.115979 14.7780377,19.0367224 C15.6494355,18.6686331 16.6024096,18.321846 17.6135186,18.0104581 C18.0057726,17.8898502 18.4061531,17.7739412 18.8149724,17.6646109 C20.0739359,17.3231493 21.4044741,17.0421484 22.7872086,16.8269337 C23.0244363,16.7899681 23.2632268,16.7542556 23.5035801,16.7210492 C23.9367786,16.6671672 24.375603,16.6201771 24.8172404,16.5819585 C26.0465114,16.474821 27.3014117,16.4387953 28.5397468,16.541547 C29.375201,16.6092128 30.215656,16.7326401 30.9457799,16.9794949 C31.3058409,17.1004161 31.6468363,17.2514111 31.8753125,17.419949 C31.9890818,17.5026516 32.0734711,17.586294 32.1212917,17.6508271 L32.1441081,17.6902988 L32.14067,17.6746354 L32.1419202,17.6652374 L32.1531721,17.7040826 L32.1584855,17.711601 L32.1534847,17.7056489 L32.1537972,17.7062754 L32.1759885,17.7827127 C32.1691123,17.81122 32.1625487,17.8447396 32.1428579,17.9108391 C32.1156658,17.981011 32.0659698,18.0815699 31.9912697,18.1934063 C31.8434321,18.4211518 31.5871386,18.6777178 31.2995899,18.9095358 C30.7216793,19.3869554 29.9965564,19.7960827 29.2561183,20.1516413 C28.2071904,20.6534957 27.105441,21.0601169 26.002754,21.411603 C25.9358676,21.0632496 25.8652307,20.7108237 25.7892803,20.354012 C25.7348961,20.1030848 25.6767612,19.8487116 25.6180012,19.5933986 C25.5892464,19.4702845 25.5601789,19.3468571 25.5304864,19.2228032 C25.5036068,19.1109667 25.4754771,18.9981905 25.4479724,18.8857274 C25.3585822,18.5251566 25.2654414,18.1620796 25.165737,17.7964965 C24.4131094,17.7958699 23.6886115,17.9202371 23.1382056,18.0499298 L23.1388307,18.0527492 C23.2394728,18.4224049 23.3319885,18.7898676 23.4201285,19.1554507 C23.4557595,19.3042528 23.4907654,19.4530548 23.5245212,19.6009171 C23.5504631,19.7165128 23.5767175,19.8317952 23.6014092,19.9467643 C23.6614194,20.224006 23.7189291,20.5003079 23.7708129,20.7741037 C23.8514516,21.1904362 23.9224011,21.6017564 23.9855369,22.0083775 C24.1477519,23.0559439 24.2530822,24.0665448 24.3030907,25.0129258 C24.3143426,25.2171762 24.3230941,25.4176673 24.3302828,25.6159657 C24.3465356,26.0564197 24.3534117,26.48309 24.3477858,26.8922173 C24.3355962,27.4855459 24.3024656,28.0428487 24.2505818,28.5569206 C24.148377,29.5847512 23.9602201,30.4446704 23.7336191,31.0361193 C23.7186166,31.0749645 23.703614,31.1100505 23.6886115,31.1467028 C23.6870487,31.1510885 23.6857985,31.1561008 23.6842358,31.1601733 C23.5864067,31.438668 23.4757629,31.6416653 23.3510542,31.7691652 C23.28198,31.8553138 23.2279084,31.9019906 23.1944652,31.9286183 C23.1675856,31.931751 23.1338299,31.9355102 23.0885097,31.9408358 L23.0450648,31.9455348 L23.0622553,31.9361368 L23.1182022,31.9245459 L23.1478948,31.9264255 L23.1403935,31.9201601 L23.1228905,31.9148346 C23.1228905,31.9148346 23.1203901,31.9135815 23.1194525,31.9132682 C22.4724677,32.0852521 21.5229317,30.6097623 20.1880178,27.2227145 C18.3930258,22.6684321 17.8982544,19.41233 17.8982544,19.41233 C16.5942832,19.8032878 15.2077981,20.5053202 14.4904889,20.8931454 C14.5017408,20.9520396 14.5126802,21.0112472 14.5239321,21.0701415 C14.5651891,21.2700061 14.6061335,21.468931 14.647078,21.6666027 C14.7408439,22.0923332 14.8349223,22.4814114 14.9377523,22.8805141 C15.0077642,23.1599487 15.0824643,23.434371 15.1593524,23.7062872 C15.5037858,24.9286568 15.9101047,26.075529 16.3495542,27.1343731 C16.3661196,27.1744713 16.3823723,27.2158226 16.3992502,27.2559208 C16.6802353,27.9181683 16.9749728,28.5453297 17.276899,29.1352124 C17.583201,29.7238419 17.8973168,30.2755059 18.217371,30.7867584 C18.8581047,31.8086369 19.5197794,32.6741949 20.2273994,33.3508526 C20.5837099,33.6873019 20.9425207,33.9808335 21.3297739,34.2107718 C21.7148392,34.4413367 22.1252213,34.6014164 22.4987222,34.6828659 C22.5971764,34.6997823 22.6903172,34.7135661 22.777832,34.7245305 C22.8215894,34.729856 22.8637841,34.7348683 22.904416,34.7395673 C22.9553621,34.7423867 23.010684,34.7430133 23.0603799,34.7433265 C23.1619597,34.7436398 23.2557256,34.7401938 23.3404274,34.7342418 C23.3801217,34.7307958 23.4182531,34.7273499 23.4545093,34.7242172 L23.4973291,34.7163855 C23.6057849,34.6969629 23.6614194,34.6866251 23.6614194,34.6866251 L23.7705004,34.6662627 C23.7705004,34.6662627 23.8820818,34.6368156 24.0927425,34.5619447 C24.2999652,34.4851941 24.5925148,34.3354523 24.8956912,34.0917302 C25.1835525,33.8470683 25.4648503,33.5178242 25.6895759,33.1390838 C25.9161768,32.7600302 26.0871433,32.3377457 26.2293549,31.8794354 C26.5112777,30.9621882 26.6553647,29.9027176 26.6953715,28.7198197 C26.7360034,27.5362952 26.6756806,26.2299699 26.5247175,24.8268449 L26.5219045,24.8033499 C27.915891,24.2209856 29.3098774,23.5195798 30.6672951,22.6493228 C31.0729889,22.3902506 31.4733693,22.106117 31.8678112,21.801621 C32.2625657,21.4980648 32.6551323,21.1735197 33.030821,20.7944661 C33.2186654,20.6052525 33.4027591,20.4025685 33.5802892,20.1817149 C33.670617,20.0739509 33.7568816,19.9505235 33.8434588,19.8349279 C33.9275356,19.7064882 34.0112998,19.582121 34.0888129,19.4420905 C34.2432141,19.1623426 34.3826128,18.8459425 34.4670021,18.4747205 C34.5467031,18.0997394 34.5601429,17.671816 34.4591883,17.2539172 L34.4591883,17.2539172 Z" id="Fill-12" fill="#EF6852"></path>
                </g>
                <g id="Page-1" transform="translate(33.801875, 108.744966) rotate(90.000000) translate(-33.801875, -108.744966) translate(-21.698125, 75.244966)">
                    <mask id="mask-4" fill="white">
                        <use xlink:href="#path-3"></use>
                    </mask>
                    <g id="Clip-2"></g>
                    <path d="M60.9508992,53.9530647 C55.9055983,58.8695619 63.6732373,31.2230635 67.8390626,27.8567027 C72.081364,24.4284857 69.4758644,35.3162341 69.4758644,35.3162341 C69.4758644,35.3162341 69.1195069,36.7218617 68.4699908,38.7924429 C67.9277537,40.1884722 67.425879,41.6394254 66.9776439,43.1330381 C65.4847659,47.0955642 63.4029154,51.5636044 60.9508992,53.9530647 M33.1905915,48.6169055 C33.1842185,48.3582828 33.1741279,48.0985936 33.1560711,47.835705 C32.2893415,35.4660753 25.1887443,31.6869846 22.9603146,21.7382765 C20.7313538,11.7895684 24.4330114,4.62385366 29.4528202,5.5319659 C31.4210186,5.88817199 32.5644432,8.80767549 32.8645058,12.340408 C25.9381043,15.7456956 26.434137,22.9407387 30.2558197,25.0822412 C35.3080247,27.9132264 41.414432,21.9835681 42.0140262,16.6516749 C43.3443924,16.5615569 44.7512347,16.5370277 46.2053435,16.5556912 C43.7634179,24.367696 35.8231764,38.6884606 33.1905915,48.6169055 M107.511591,47.3269915 C107.234365,47.7397213 106.925805,48.1657822 106.5806,48.6025079 C102.65695,53.5771286 99.711556,52.4621182 101.044047,47.0283756 C102.377068,41.594633 104.431833,35.8894699 102.224647,31.2070662 C100.400372,27.3367911 95.4814696,23.7363367 95.4814696,23.7363367 C95.4814696,23.7363367 97.2595398,17.3000979 93.5191131,14.2947424 C91.0734698,12.3297432 85.0573468,13.8116245 86.1943983,21.6433593 C86.5082692,23.802992 87.8057081,25.4672423 89.3936502,27.0573719 C87.6139867,33.4914777 83.6308544,46.1954506 79.224979,49.127752 C73.0144792,53.2598492 77.9960499,31.1286796 82.652066,25.7802558 C84.2421324,23.9538997 82.4714974,21.1655739 80.1596874,21.8683877 C80.119325,21.8806523 80.0789626,21.8934501 80.0380691,21.9067812 C78.6466282,22.3595042 76.5934563,24.3548982 74.4425649,27.4173107 C74.3952984,26.4409434 74.2434082,25.347796 73.9529051,24.1181384 C73.9529051,24.1181384 72.893923,19.4176045 69.6649305,19.4096059 C64.2399043,19.3962748 54.0855724,28.9551825 50.0721683,43.704141 C49.5957857,45.4558431 49.2914744,47.1024964 49.1353356,48.6371687 C47.9579217,50.2742237 46.731117,51.5806681 45.5393638,52.189098 C40.7580118,54.6313493 51.8146559,25.9013019 54.347397,17.9367897 C54.4520206,17.6072457 54.5433671,17.2819677 54.6283406,16.9593559 C59.7235634,17.2947655 64.7948874,17.6509716 68.8544958,17.2249107 C72.950218,16.7951171 75.5450959,15.4086863 77.1882707,13.8153572 C79.0348508,12.0252616 77.3948625,8.91005808 74.8817716,9.4342356 C69.1800505,10.6228335 62.4634273,9.71952042 54.914595,9.39637538 C54.076544,5.52983292 51.7222473,2.95693714 49.3626397,2.48661712 C48.3673877,2.28825086 47.4756972,3.13237397 47.6233386,4.14073582 C47.7869126,5.26054539 47.9085309,7.00424885 47.688662,9.34358435 C45.9875989,9.40490726 44.2536087,9.52648658 42.485098,9.73871716 C42.1754758,9.7755109 41.8791308,9.81977004 41.5795992,9.86189621 C41.3103395,8.78954524 40.941767,7.72839237 40.4574181,6.69763433 C36.4535735,-1.82571618 20.3309162,-3.53209266 14.2324752,9.41397238 C9.89404747,18.6241394 13.1527808,27.490365 17.4375689,36.9298263 C21.0176082,44.8175516 21.4727475,50.4134 18.5889597,54.3759261 C15.2781801,58.9250192 8.70654297,56.1884179 10.0507173,46.6780352 C10.464432,43.752666 11.0640262,41.7178121 11.6498122,40.3185834 C12.2637456,38.8516329 10.9838325,37.2913649 9.43200413,37.6161096 C6.78454887,38.1696155 3.47908017,39.7624113 1.51300607,44.0539481 C-2.49455608,52.8012606 1.68720173,63.6484825 11.3566536,65.8209131 C19.3691225,67.6211403 29.4788433,62.6929117 32.3822812,54.0410497 C32.5883419,61.6402907 40.2131193,62.7035766 45.4453619,58.6957248 C46.7884741,57.6665665 48.1342417,56.3899836 49.4290252,55.0094184 C50.8140931,61.128911 55.4387752,63.6170212 60.0581465,60.9886682 C62.4581165,59.623567 64.6318445,56.9477554 66.531002,53.7525655 C68.1577132,58.90049 72.6905177,61.2659544 76.5743373,60.1493443 C85.3972408,57.6132422 91.2577561,40.1154179 93.6927776,31.2630567 C94.2642243,31.9061473 94.7963708,32.5854985 95.2552276,33.3235063 C98.0689123,37.8518029 89.1578487,48.4947929 90.8068655,55.4669406 C93.2052422,65.6065496 104.732958,61.9501047 109.89138,50.0022699 C110.069293,49.5906066 110.230743,49.196007 110.377322,48.8184712 C111.082602,46.9985141 108.597128,45.7070004 107.511591,47.3269915" id="Fill-1" fill="#2A4951" mask="url(#mask-4)"></path>
                </g>
            </g>
        </g>
    </g>
</svg>